<svg width="50" height="10" viewBox="0 0 100 100" fill="none" xmlns="http://www.w3.org/2000/svg">
<path d="M50 100C77.6142 100 100 77.6142 100 50C100 22.3858 77.6142 0 50 0C22.3858 0 0 22.3858 0 50C0 77.6142 22.3858 100 50 100Z" fill="#FFE66E"/>
<path d="M85.3553 14.6445L14.6447 85.3552C20.5008 91.2284 27.7317 95.5452 35.6803 97.9133L97.9136 35.68C95.5454 27.7314 91.2286 20.5006 85.3553 14.6445Z" fill="#FFF6A0"/>
<path d="M50 92.1875C73.2995 92.1875 92.1875 73.2995 92.1875 50C92.1875 26.7005 73.2995 7.8125 50 7.8125C26.7005 7.8125 7.8125 26.7005 7.8125 50C7.8125 73.2995 26.7005 92.1875 50 92.1875Z" fill="#FAC841"/>
<path d="M20.1689 79.8311C28.0806 87.7428 38.8112 92.1876 50 92.1876C61.1888 92.1876 71.9194 87.7428 79.8311 79.8311C87.7428 71.9194 92.1875 61.1889 92.1875 50C92.1875 38.8112 87.7428 28.0806 79.8311 20.1689L20.1689 79.8311Z" fill="#FCD24D"/>
<path d="M23.4834 23.4836C31.1085 15.8597 41.3633 11.4449 52.1417 11.1458C62.9202 10.8467 73.404 14.6859 81.4402 21.8751C80.9214 21.297 80.3875 20.7261 79.8308 20.1696C71.909 12.3068 61.1941 7.90358 50.0326 7.92439C38.8711 7.9452 28.1727 12.3883 20.2802 20.2807C12.3878 28.173 7.94468 38.8714 7.92381 50.0329C7.90294 61.1945 12.3061 71.9094 20.1689 79.8312C20.7253 80.3876 21.2955 80.9215 21.8744 81.4406C14.6852 73.4043 10.846 62.9204 11.1452 52.1419C11.4445 41.3634 15.8595 31.1085 23.4834 23.4836Z" fill="#FABE32"/>
<path d="M58.1677 8.60938L64.6052 2.17188C69.8933 3.78832 74.8753 6.27409 79.3469 9.52719L73.745 15.1295C69.0482 11.9227 63.7484 9.70433 58.1677 8.60938Z" fill="#FFF6A0"/>
<path d="M15.1295 73.745L9.52829 79.3462C6.27519 74.8747 3.78942 69.8926 2.17297 64.6045L8.61047 58.167C9.70508 63.7479 11.923 69.0479 15.1295 73.745Z" fill="#FFF6A0"/>
<path d="M16.8544 16.8543C7.67119 26.0396 2.42348 38.4384 2.22248 51.4252C2.02148 64.4121 6.88297 76.9674 15.7775 86.4324C15.3983 86.0759 15.0152 85.726 14.6447 85.3554C5.26786 75.9786 6.92311e-06 63.2609 -7.62936e-06 50.0001C-2.21818e-05 36.7392 5.26781 24.0215 14.6446 14.6447C24.0214 5.26787 36.7391 1.47501e-05 50 0C63.2608 -1.475e-05 75.9785 5.26781 85.3553 14.6446C85.7259 15.0151 86.0758 15.3982 86.4324 15.7774C76.9673 6.88294 64.4121 2.02149 51.4252 2.22249C38.4384 2.42349 26.0396 7.67116 16.8544 16.8543Z" fill="#FFF6A0"/>
<path d="M42.1875 76.5625V81.25H45.3125V76.5625H51.5625V81.25H54.6875V76.5625H57.8125C61.1919 76.5652 64.4708 75.4137 67.1066 73.2988C69.7423 71.1839 71.5769 68.2324 72.3065 64.9327C73.0361 61.6331 72.6171 58.1832 71.1188 55.1542C69.6205 52.1251 67.1328 49.6985 64.0674 48.2761C65.9241 46.2535 67.1823 43.7547 67.7015 41.0586C68.2207 38.3625 67.9804 35.5751 67.0076 33.0076C66.0347 30.4401 64.3675 28.1934 62.192 26.5184C60.0166 24.8433 57.4184 23.8057 54.6875 23.5214V18.75H51.5625V23.4375H45.3125V18.75H42.1875V23.4375H33.5938V29.6875H38.2813V70.3125H33.5938V76.5625H42.1875ZM44.5313 29.6875H53.125C55.4042 29.6875 57.5901 30.5929 59.2017 32.2046C60.8133 33.8162 61.7188 36.002 61.7188 38.2812C61.7188 40.5605 60.8133 42.7463 59.2017 44.358C57.5901 45.9696 55.4042 46.875 53.125 46.875H44.5313V29.6875ZM44.5313 53.125H57.8125C60.0917 53.125 62.2776 54.0304 63.8892 55.6421C65.5009 57.2537 66.4063 59.4395 66.4063 61.7188C66.4063 63.998 65.5009 66.1838 63.8892 67.7954C62.2776 69.4071 60.0917 70.3125 57.8125 70.3125H44.5313V53.125Z" fill="#F5B932"/>
<path d="M39.0625 76.5625V81.25H42.1875V76.5625H48.4375V81.25H51.5625V76.5625H54.6875C58.0669 76.5652 61.3458 75.4137 63.9816 73.2988C66.6173 71.1839 68.4519 68.2324 69.1815 64.9327C69.9111 61.6331 69.4921 58.1832 67.9938 55.1542C66.4955 52.1251 64.0078 49.6985 60.9424 48.2761C62.7991 46.2535 64.0573 43.7547 64.5765 41.0586C65.0957 38.3625 64.8554 35.5751 63.8826 33.0076C62.9097 30.4401 61.2425 28.1934 59.067 26.5184C56.8916 24.8433 54.2934 23.8057 51.5625 23.5214V18.75H48.4375V23.4375H42.1875V18.75H39.0625V23.4375H30.4688V29.6875H35.1563V70.3125H30.4688V76.5625H39.0625ZM41.4063 29.6875H50C52.2792 29.6875 54.4651 30.5929 56.0767 32.2046C57.6883 33.8162 58.5938 36.002 58.5938 38.2812C58.5938 40.5605 57.6883 42.7463 56.0767 44.358C54.4651 45.9696 52.2792 46.875 50 46.875H41.4063V29.6875ZM41.4063 53.125H54.6875C56.9667 53.125 59.1526 54.0304 60.7642 55.6421C62.3759 57.2537 63.2813 59.4395 63.2813 61.7188C63.2813 63.998 62.3759 66.1838 60.7642 67.7954C59.1526 69.4071 56.9667 70.3125 54.6875 70.3125H41.4063V53.125Z" fill="#FFF082"/>
</svg>
