<svg width="286" height="20" viewBox="0 0 286 20" fill="none" xmlns="http://www.w3.org/2000/svg">
<path d="M276 0C270.477 0 266 4.4771 266 9.99991C266 15.5227 270.477 20 276 20C281.523 20 286 15.5227 286 9.99991C285.994 4.47966 281.52 0.00622554 276 0V0ZM276 18.9999C271.029 18.9999 267 14.9705 267 9.99991C267 5.02934 271.029 0.999936 276 0.999936C280.97 0.999936 285 5.02934 285 9.99991C284.994 14.9681 280.968 18.9942 276 18.9999Z" fill="white"/>
<path d="M274.829 6.12362C274.621 5.9418 274.305 5.96304 274.123 6.17087C273.942 6.37887 273.963 6.69473 274.171 6.87655L277.741 9.99996L274.171 13.1235C273.963 13.3054 273.942 13.6212 274.123 13.829C274.305 14.0371 274.621 14.0583 274.829 13.8765L278.829 10.3764C278.937 10.2816 279 10.1442 279 9.99996C279 9.85567 278.937 9.71852 278.829 9.62349L274.829 6.12362Z" fill="white"/>
<path d="M10.0001 0C15.5229 0 20 4.4771 20 9.99991C20 15.5227 15.5229 20 10.0001 20C4.47728 20 0 15.5227 0 9.99991C0.00622559 4.47966 4.47966 0.00622554 10.0001 0V0ZM10.0001 18.9999C14.9707 18.9999 19.0001 14.9705 19.0001 9.99991C19.0001 5.02934 14.9707 0.999936 10.0001 0.999936C5.02952 0.999936 1.00012 5.02934 1.00012 9.99991C1.00579 14.9681 5.03191 18.9942 10.0001 18.9999Z" fill="white"/>
<path d="M11.1708 6.12362C11.3788 5.9418 11.6947 5.96304 11.8765 6.17087C12.0582 6.37887 12.0369 6.69473 11.8291 6.87655L8.25929 9.99996L11.8293 13.1235C12.0373 13.3054 12.0584 13.6212 11.8767 13.829C11.6949 14.0371 11.379 14.0583 11.171 13.8765L7.1711 10.3764C7.06252 10.2816 7.00026 10.1442 7.00026 9.99996C7.00026 9.85567 7.06252 9.71852 7.1711 9.62349L11.1708 6.12362Z" fill="white"/>
</svg>
